# xmcd CD database file
#
# Track frame offsets:
#	150
#	21340
#	40087
#	58377
#	80682
#	91618
#	112616
#	188606
#	209796
#	228086
#
# Disc length: 3336 seconds
#
# Revision: 0
# Processed by: cddbd v1.5.1PL0 Copyright (c) Steve Scherf et al.
# Submitted via: CDex 1.50beta10
#
DISCID=790d060a
DTITLE=love solfege - zig jazz
DYEAR=2004
DGENRE=Pop
TTITLE0=Garbage
TTITLE1=Nack-4
TTITLE2=ぱぴるぷぺぽっぱ
TTITLE3=monologue
TTITLE4=非デザルグ的な準アフィン代数多様体
TTITLE5=check mate mrb mix
TTITLE6=love天
TTITLE7=Garbage (off vocal)
TTITLE8=ぱぴるぷぺぽっぱ (off vocal)
TTITLE9=monologue (off vocal)
EXTD=YEAR: 2004
EXTT0=
EXTT1=
EXTT2=
EXTT3=
EXTT4=
EXTT5=
EXTT6=
EXTT7=
EXTT8=
EXTT9=
PLAYORDER=
